<svg width="2560" height="1440" viewBox="0 0 1920 1080" xmlns="http://www.w3.org/2000/svg">
<rect width="2560" height="1440" fill="#2f2fca"/>
<path d="M 0,1080 C 0,1080 0,180 0,180 C 56.55393961708393,182.13733431516937 113.10787923416785,184.27466863033874 206,187 C 298.89212076583215,189.72533136966126 428.12242268041246,193.03865979381445 518,173 C 607.8775773195875,152.96134020618555 658.4024300441827,109.57069219440353 722,117 C 785.5975699558173,124.42930780559647 862.2678571428571,182.67857142857147 942,218 C 1021.7321428571429,253.32142857142853 1104.526141384389,265.71502209131074 1195,236 C 1285.473858615611,206.28497790868926 1383.6275773195875,134.46134020618555 1474,137 C 1564.3724226804125,139.53865979381445 1646.9635493372607,216.439617083947 1720,236 C 1793.0364506627393,255.560382916053 1856.5182253313696,217.78019145802648 1920,180 C 1920,180 1920,1080 1920,1080 Z" fill="#171038" opacity="0.09999999999999999"/>
<path d="M 0,1080 C 0,1080 0,360 0,360 C 72.58578792341677,352.3877025036819 145.17157584683355,344.77540500736376 225,345 C 304.82842415316645,345.22459499263624 391.89948453608247,353.28608247422676 489,352 C 586.1005154639175,350.71391752577324 693.2304860088367,340.08026509572903 759,340 C 824.7695139911633,339.91973490427097 849.1785714285713,350.39285714285717 920,346 C 990.8214285714287,341.60714285714283 1108.0552282768779,322.3483063328424 1190,320 C 1271.9447717231221,317.6516936671576 1318.6005154639174,332.2139175257731 1403,348 C 1487.3994845360826,363.7860824742269 1609.5427098674522,380.79602356406485 1702,383 C 1794.4572901325478,385.20397643593515 1857.2286450662739,372.6019882179676 1920,360 C 1920,360 1920,1080 1920,1080 Z" fill="#171038" opacity="0.19999999999999998"/>
<path d="M 0,1080 C 0,1080 0,540 0,540 C 62.86910898379969,497.86266568483063 125.73821796759938,455.7253313696613 209,473 C 292.2617820324006,490.2746686303387 395.9162371134021,566.9613402061855 481,586 C 566.0837628865979,605.0386597938145 632.5968335787924,566.4293078055964 710,533 C 787.4031664212076,499.57069219440353 875.6964285714287,471.32142857142856 964,482 C 1052.3035714285713,492.67857142857144 1140.6174521354933,542.2849779086891 1228,546 C 1315.3825478645067,549.7150220913109 1401.833762886598,507.5386597938144 1471,508 C 1540.166237113402,508.4613402061856 1592.047496318115,551.5603829160531 1664,564 C 1735.952503681885,576.4396170839469 1827.9762518409425,558.2198085419734 1920,540 C 1920,540 1920,1080 1920,1080 Z" fill="#171038" opacity="0.3"/>
<path d="M 0,1080 C 0,1080 0,720 0,720 C 100.67838733431518,759.3853092783505 201.35677466863035,798.770618556701 278,784 C 354.64322533136965,769.229381443299 407.2512886597938,700.3028350515464 487,684 C 566.7487113402062,667.6971649484536 673.6380706921944,704.0180412371135 754,727 C 834.3619293078056,749.9819587628865 888.1964285714287,759.625 960,744 C 1031.8035714285713,728.375 1121.5762150220912,687.4819587628866 1195,700 C 1268.4237849779088,712.5180412371134 1325.498711340206,778.4471649484535 1413,778 C 1500.501288659794,777.5528350515465 1618.428939617084,710.729381443299 1708,690 C 1797.571060382916,669.270618556701 1858.7855301914578,694.6353092783505 1920,720 C 1920,720 1920,1080 1920,1080 Z" fill="#171038" opacity="0.39999999999999997"/>
<!-- <path d="M 0,1080 C 0,1080 0,900 0,900 C 64.75423416789394,933.6708394698085 129.50846833578788,967.341678939617 219,966 C 308.4915316642121,964.658321060383 422.7203608247422,928.3041237113401 510,922 C 597.2796391752578,915.6958762886599 657.610088365243,939.4418262150222 735,940 C 812.389911634757,940.5581737849778 906.8392857142858,917.9285714285714 994,895 C 1081.1607142857142,872.0714285714286 1161.0327687776144,848.8438880706922 1237,850 C 1312.9672312223856,851.1561119293078 1385.0296391752577,876.6958762886596 1465,887 C 1544.9703608247423,897.3041237113404 1632.848674521355,892.3726067746687 1710,892 C 1787.151325478645,891.6273932253313 1853.5756627393225,895.8136966126656 1920,900 C 1920,900 1920,1080 1920,1080 Z" fill="#171038" opacity="0.39999999999999997"/> -->
</svg>